<svg aria-hidden="true" style="position:absolute;width:0;height:0;overflow:hidden"
    xmlns="http://www.w3.org/2000/svg">
    <defs>
        <symbol id="facebook" viewBox="0 0 32 32">
            <path d="M17.943 25.333v-8.4h2.915l.476-3.733h-3.391v-1.818c0-.961.028-1.915 1.563-1.915h1.555V6.798c0-.04-1.336-.131-2.687-.131-2.822 0-4.589 1.547-4.589 4.387v2.147h-3.118v3.733h3.118v8.4h4.158z"/>
        </symbol>
        <symbol id="twitter" viewBox="0 0 32 32">
            <path d="M12.537 24c7.044 0 10.897-6.156 10.897-11.495 0-.175 0-.35-.011-.523a8.055 8.055 0 0 0 1.911-2.091 7.329 7.329 0 0 1-2.199.636 4.031 4.031 0 0 0 1.684-2.235 7.45 7.45 0 0 1-2.432.981c-1.45-1.626-3.876-1.705-5.419-.175-.994.986-1.417 2.457-1.108 3.86-3.079-.163-5.948-1.697-7.893-4.221-1.016 1.846-.497 4.207 1.186 5.392a3.658 3.658 0 0 1-1.739-.505v.051c.001 1.923 1.286 3.579 3.073 3.96a3.615 3.615 0 0 1-1.729.069c.501 1.646 1.939 2.773 3.577 2.806a7.434 7.434 0 0 1-4.756 1.733 7.533 7.533 0 0 1-.912-.058 10.441 10.441 0 0 0 5.871 1.812z"/>
        </symbol>
        <symbol id="google" viewBox="0 0 32 32">
            <path d="M23.191 15.07h-7.688c0 .8 0 2.399-.005 3.198h4.455c-.171.799-.776 1.919-1.631 2.483-.001-.001-.002.005-.003.004-1.137.751-2.638.921-3.752.697a4.948 4.948 0 0 1-3.69-3.222c.003-.002.006-.025.008-.026-.351-.998-.351-2.334 0-3.133h-.001c.453-1.47 1.876-2.81 3.625-3.177 1.407-.298 2.994.025 4.161 1.117.155-.152 2.148-2.098 2.298-2.256-3.988-3.612-10.373-2.341-12.762 2.323h-.001l-.004.009a7.813 7.813 0 0 0 .008 7.171.055.055 0 0 0-.008.006 8.143 8.143 0 0 0 5.184 4.132c2.409.632 5.475.2 7.528-1.657l.002.002c1.74-1.567 2.823-4.237 2.276-7.669z"/>
        </symbol>
        <symbol id="LTE" viewBox="0 0 32 32">
            <path fill="#99efd0" style="fill:var(--color2, #99efd0)" opacity=".3" d="m9.675 25.239-1.703 2.052A14.636 14.636 0 0 1 2.667 16c0-4.414 1.964-8.511 5.292-11.28l1.706 2.05A11.971 11.971 0 0 0 5.334 16a11.97 11.97 0 0 0 4.342 9.239zm12.65 0 1.703 2.052A14.636 14.636 0 0 0 29.333 16c0-4.414-1.964-8.511-5.292-11.28l-1.706 2.05A11.971 11.971 0 0 1 26.666 16a11.97 11.97 0 0 1-4.342 9.239zm-3.42-4.092 1.697 2.057A9.315 9.315 0 0 0 24.001 16a9.317 9.317 0 0 0-3.378-7.187l-1.702 2.053A6.65 6.65 0 0 1 21.335 16a6.651 6.651 0 0 1-2.429 5.147zm-7.506 2.057 1.697-2.057A6.65 6.65 0 0 1 10.667 16c0-2.012.895-3.874 2.414-5.134l-1.702-2.053A9.313 9.313 0 0 0 8.001 16a9.315 9.315 0 0 0 3.399 7.204z"/>
            <path fill="#99efd0" style="fill:var(--color2, #99efd0)" d="M16 18.667a2.667 2.667 0 1 0 0-5.334 2.667 2.667 0 0 0 0 5.334z"/>
        </symbol>
        <symbol id="Swiss-knife" viewBox="0 0 32 32">
            <path fill="#99efd0" style="fill:var(--color2, #99efd0)" opacity=".3" d="M21.046 18.667h5.621v-16a8 8 0 0 0-8 8v5.562L10.438 8a5.334 5.334 0 0 0 0 7.543l6.866 6.866 3.742-3.742z"/>
            <path fill="#99efd0" style="fill:var(--color2, #99efd0)" d="M5.778 16a4.444 4.444 0 0 0-4.444 4.444v3.111a4.444 4.444 0 0 0 4.444 4.444h20.444a4.444 4.444 0 0 0 4.444-4.444v-3.111A4.444 4.444 0 0 0 26.222 16H5.778zM28 22a2 2 0 1 1-3.999.001A2 2 0 0 1 28 22z"/>
        </symbol>
        <symbol id="Bulb" viewBox="0 0 32 32">
            <path fill="#99efd0" style="fill:var(--color2, #99efd0)" opacity=".3" d="M16 22.667c5.891 0 10.667-4.776 10.667-10.667S21.891 1.333 16 1.333 5.333 6.109 5.333 12 10.109 22.667 16 22.667z"/>
            <path fill="#99efd0" style="fill:var(--color2, #99efd0)" opacity=".3" d="m8.718 12 5.373 13.817 1.877-.73 1.865.737 5.461-13.823H8.718zm3.898 2.667h6.757l-3.405 8.619-3.352-8.619zM13.333 29.333h5.333a2.667 2.667 0 1 1-5.334 0z"/>
            <path fill="#99efd0" style="fill:var(--color2, #99efd0)" d="M10.667 22.667c0-.736.597-1.333 1.333-1.333h8A1.333 1.333 0 0 1 20 24a1.333 1.333 0 0 1 0 2.666 1.333 1.333 0 0 1 0 2.666h-8a1.333 1.333 0 0 1 0-2.666A1.333 1.333 0 0 1 12 24a1.333 1.333 0 0 1-1.333-1.333z"/>
        </symbol>
        <symbol id="Attachment" viewBox="0 0 32 32">
            <path fill="#99efd0" style="fill:var(--color2, #99efd0)" opacity=".3" d="M5.629 18.828a2.667 2.667 0 0 0 0 3.771L9.4 26.37a2.667 2.667 0 0 0 3.771 0l3.771-3.771a2.667 2.667 0 0 0 0-3.771l-.943-.943-2.828 2.828a1.333 1.333 0 1 1-1.886-1.886l2.828-2.828-.943-.943a2.667 2.667 0 0 0-3.771 0l-3.771 3.771z"/>
            <path fill="#99efd0" style="fill:var(--color2, #99efd0)" d="M15.057 9.4a2.667 2.667 0 0 0 0 3.771l.943.943 2.828-2.828a1.333 1.333 0 1 1 1.886 1.886L17.886 16l.943.943a2.667 2.667 0 0 0 3.771 0l3.771-3.771a2.667 2.667 0 0 0 0-3.771L22.6 5.63a2.667 2.667 0 0 0-3.771 0l-3.771 3.771z"/>
        </symbol>
        <symbol id="Thunder-move" viewBox="0 0 32 32">
            <path fill="#99efd0" style="fill:var(--color2, #99efd0)" d="M20 26.031c0 .989 1.283 1.378 1.832.555l7.798-11.697a1 1 0 0 0-.832-1.555h-6.131V5.97c0-.989-1.283-1.378-1.832-.555l-7.798 11.697a1 1 0 0 0 .832 1.555H20v7.364z"/>
            <path fill="#99efd0" style="fill:var(--color2, #99efd0)" opacity=".3" d="M4 8.667a2 2 0 0 1 2-2h6.667a2 2 0 1 1 0 4H6a2 2 0 0 1-2-2zm0 16a2 2 0 0 1 2-2h6.667a2 2 0 1 1 0 4H6a2 2 0 0 1-2-2zm-.667-10a2 2 0 1 0 0 4h5.333a2 2 0 1 0 0-4H3.333z"/>
        </symbol>
        <symbol id="LTE1" viewBox="0 0 32 32">
            <path fill="#99efd0" style="fill:var(--color2, #99efd0)" opacity=".3" d="m9.675 25.239-1.703 2.052A14.636 14.636 0 0 1 2.667 16c0-4.414 1.964-8.511 5.292-11.28l1.706 2.05A11.971 11.971 0 0 0 5.334 16a11.97 11.97 0 0 0 4.342 9.239zm12.65 0 1.703 2.052A14.636 14.636 0 0 0 29.333 16c0-4.414-1.964-8.511-5.292-11.28l-1.705 2.05A11.971 11.971 0 0 1 26.667 16a11.97 11.97 0 0 1-4.342 9.239zm-3.42-4.092 1.697 2.057A9.315 9.315 0 0 0 24.001 16a9.314 9.314 0 0 0-3.379-7.187l-1.702 2.053a6.65 6.65 0 0 1 2.414 5.135 6.651 6.651 0 0 1-2.429 5.147zm-7.506 2.057 1.697-2.057A6.65 6.65 0 0 1 10.667 16c0-2.012.895-3.874 2.414-5.135l-1.702-2.053A9.314 9.314 0 0 0 8 15.999a9.315 9.315 0 0 0 3.399 7.204z"/>
            <path fill="#99efd0" style="fill:var(--color2, #99efd0)" d="M16 18.667a2.667 2.667 0 1 0 0-5.334 2.667 2.667 0 0 0 0 5.334z"/>
        </symbol>
        <symbol id="Airpods" viewBox="0 0 32 32">
            <path fill="#99efd0" style="fill:var(--color2, #99efd0)" opacity=".3" d="M18.667 15.296a7.98 7.98 0 0 0 4 1.927v10.111a2 2 0 1 1-4 0V15.297zM9.333 17.223a7.972 7.972 0 0 0 4-1.927v12.037a2 2 0 1 1-4 0V17.222z"/>
            <path fill="#99efd0" style="fill:var(--color2, #99efd0)" d="M24 16a6.667 6.667 0 1 0 0-13.334A6.667 6.667 0 0 0 24 16zm-5.333-6.333a1 1 0 0 1 1-1h.667a1 1 0 0 1 0 2h-.667a1 1 0 0 1-1-1zm9.333-3c-.736 0-1.333.597-1.333 1.333v2.667a1.333 1.333 0 0 0 2.666 0V8c0-.736-.597-1.333-1.333-1.333zM8 16A6.667 6.667 0 1 0 8 2.666 6.667 6.667 0 0 0 8 16zm2.667-6.333a1 1 0 0 1 1-1h.667a1 1 0 0 1 0 2h-.667a1 1 0 0 1-1-1zM4 6.667c-.736 0-1.333.597-1.333 1.333v2.667a1.333 1.333 0 0 0 2.666 0V8c0-.736-.597-1.333-1.333-1.333z"/>
        </symbol>
        <symbol id="Flip-horizontal" viewBox="0 0 32 32">
            <path fill="#99efd0" style="fill:var(--color2, #99efd0)" opacity=".3" d="M4.366 24.419a.666.666 0 0 0 .619.914h6.349a.667.667 0 0 0 .667-.667V8.794c0-.734-1.013-.929-1.286-.248L4.366 24.418z"/>
            <path fill="#99efd0" style="fill:var(--color2, #99efd0)" d="M27.634 24.419a.666.666 0 0 1-.619.914h-6.349a.667.667 0 0 1-.667-.667V8.794c0-.734 1.013-.929 1.286-.248l6.349 15.872z"/>
            <path fill="#99efd0" style="fill:var(--color2, #99efd0)" opacity=".3" d="M16 2.667c.736 0 1.333.597 1.333 1.333v24a1.333 1.333 0 0 1-2.666 0V4c0-.736.597-1.333 1.333-1.333z"/>
        </symbol>
        <symbol id="Frame-5" viewBox="0 0 145 32">
            <path d="M18.574.848c-.14.165-.148.38-.168 4.747-.013 2.774-.05 4.575-.094 4.575-.04 0-.135-.069-.211-.154-.158-.177-.98-.718-1.575-1.038-1.579-.849-4.281-1.294-6.185-1.02-1.379.198-3.783 1.106-4.338 1.637a8.064 8.064 0 0 1-.694.517c-.517.353-2.276 2.16-2.276 2.339 0 .046-.196.388-.437.76-.717 1.11-1.035 1.949-1.472 3.876-.342 1.509-.194 3.978.367 6.098.213.808 1.231 2.824 1.48 2.933.034.015.062.065.062.112 0 .287 1.395 1.778 2.392 2.557 2.696 2.105 6.808 2.733 9.924 1.516.835-.326 2.343-1.143 2.72-1.473l.281-.246.038.937c.035.849.056.957.225 1.148l.187.211h1.714c1.573 0 1.729-.013 1.896-.157l.182-.156V16.689c0-12.229-.013-13.892-.116-13.997-.063-.065-.359-.255-.656-.422s-.61-.368-.694-.447C20.136.904 18.921.44 18.572.849zM83.408.825c-.109.128-.127.366-.127 1.619 0 1.674-.006 1.656.634 2.088.224.151.473.338.553.416s.341.247.579.376c.238.129.67.407.958.617.691.502 1.101.517 1.329.049.169-.348.165-4.723-.005-5.073l-.118-.242h-1.838c-1.682 0-1.849.013-1.966.15zm45.591-.094c-1.097.147-2.949.738-3.881 1.237-.242.13-.537.262-.652.292-.249.065-1.722 1.106-2.481 1.753-.995.849-2.608 2.738-2.979 3.49-.259.524-.634 1.195-.69 1.231-.097.064-.829 1.935-1.009 2.582-.695 2.493-.694 2.482-.694 10.095v6.596l.186.544c.102.3.271.642.372.761s.241.312.309.43c.178.303.927.808 1.465.986.63.208 12.127.231 13.486.027 2.175-.327 4.864-1.435 6.364-2.624.255-.202.534-.398.62-.437.085-.039.479-.397.876-.796s.753-.738.79-.753c.038-.015.337-.382.666-.815.33-.433.671-.873.763-.977.09-.104.293-.455.45-.78s.332-.647.39-.715c.057-.068.272-.511.481-.984 1.561-3.545 1.615-8.388.134-11.991-.24-.585-.484-1.118-.54-1.186s-.228-.386-.379-.709c-.572-1.212-2.516-3.496-3.712-4.359a31.863 31.863 0 0 1-.772-.582c-2.176-1.709-6.428-2.738-9.567-2.317zm2.932 5.637c1.681.465 3.029 1.907 3.471 3.715.204.835.169 6.064-.046 6.83-.174.62-.378 1.092-.593 1.374-.987 1.296-1.623 1.795-2.74 2.152-2.265.724-4.954-.816-5.671-3.248-.23-.778-.357-5.783-.174-6.785.543-2.954 3.124-4.766 5.753-4.039zm-96.606 1.48c-1.657.145-4.281 1.132-5.184 1.95a3.56 3.56 0 0 1-.56.411c-.516.282-2.065 2.082-2.501 2.907-1.282 2.425-1.669 3.873-1.669 6.237 0 9.922 11.077 15.22 18.053 8.633 2.381-2.248 2.476-2.747.608-3.194a56.894 56.894 0 0 1-1.666-.427c-1.061-.296-1.244-.277-1.731.183-2.303 2.17-5.559 2.432-8.049.647-1.212-.869-2.233-2.187-2.546-3.288l-.102-.36h16.635l.499-.494-.044-1.656c-.025-.966-.089-1.877-.155-2.188l-.239-1.146c-.142-.68-.793-2.19-1.218-2.824-.151-.225-.296-.483-.322-.573-.092-.319-1.711-2.091-2.248-2.459a9.695 9.695 0 0 1-.675-.51c-1.384-1.175-4.631-2.046-6.888-1.849zm22.454.113c-.665.062-1.775.341-2.128.534-.12.066-.273.12-.34.12-.973 0-3.431 2.462-4.362 4.369-1.135 2.324-1.167 2.631-1.14 10.882l.022 6.617.216.197c.279.254 3.367.312 3.715.07.311-.217.311-.217.351-7.403l.039-6.998.237-.619c.131-.34.431-.893.669-1.228.785-1.107.718-1.047 1.834-1.662 1.188-.656 2.466-.601 3.625.157.306.2.581.364.611.364.285 0 1.417 1.794 1.672 2.649.318 1.064.341 1.636.342 8.242.001 6.193.003 6.269.158 6.446.257.293 3.431.277 3.755-.018l.216-.197.042-6.862.043-6.862.238-.777c1.477-4.821 6.877-4.733 8.491.139l.212.639.039 6.925c.033 5.702.058 6.948.146 7.06.193.247 3.63.199 3.854-.055l.168-.189v-6.876c0-7.75.009-7.594-.576-9.399-.505-1.555-1.691-3.454-2.51-4.019a5.932 5.932 0 0 1-.605-.508c-1.457-1.401-4.727-2.153-6.828-1.57-1.816.504-2.99 1.21-4.235 2.546l-.595.638-.331-.412c-1.629-2.029-4.402-3.187-7.044-2.94zm25.986-.025c-.522.107-.484-.789-.484 11.529v11.074l.203.17c.204.17 3.24.27 3.612.118.361-.147.351.196.351-11.408 0-11.905.024-11.279-.433-11.463-.187-.076-2.898-.093-3.25-.021zm15.449.101c-.944.179-2.306.631-2.974.988-.518.277-1.319.796-1.385.898-.021.032-.195.161-.386.286s-.673.582-1.071 1.015c-2.622 2.851-3.604 6.24-3.014 10.405.411 2.897 2.754 6.366 5.242 7.762 1.033.579 1.254.685 1.99.954 3.832 1.399 8.266.277 11.204-2.834 2.448-2.591 3.681-7.017 2.905-10.424-.437-1.923-.715-2.679-1.353-3.683-.2-.315-.455-.739-.566-.942-.286-.521-1.636-1.912-2.391-2.467-2.402-1.761-5.424-2.483-8.201-1.958zm30.736-.071c-.88.221-1.737 1.047-2.062 1.989l-.202.583v2.865c0 2.785.006 2.879.18 3.396.896 2.673 4.554 2.907 5.751.368.35-.742.369-.974.343-3.971l-.023-2.822-.239-.532c-.673-1.502-2.199-2.265-3.749-1.877zm1.371 3.464.263.278v2.118c0 1.862-.016 2.142-.132 2.321-.33.507-.748.554-1.15.129l-.262-.278v-4.289l.262-.278c.19-.2.331-.278.508-.278.18 0 .321.078.51.278zM13.318 12.538c4.702 1.282 6.624 7.016 3.719 11.096-.549.771-.752.971-1.731 1.711-2.503 1.891-6.403 1.245-8.596-1.425-4.129-5.026.525-13.042 6.608-11.382zm24.631.005c1.996.653 3.58 2.092 4.32 3.926l.265.658H29.97l.105-.315c.218-.655.736-1.578 1.085-1.936.088-.09.237-.27.33-.399 1.196-1.659 4.383-2.613 6.459-1.934zm64.815.044c1.321.406 2.056.865 2.987 1.863 4.702 5.045.288 13.37-6.243 11.774-1.088-.266-1.482-.479-2.735-1.483-1.87-1.499-2.733-4.5-2.072-7.198.909-3.709 4.646-6.006 8.063-4.956zm35.965 5.473c.144.153.262.358.262.456 0 .462-.823 2.66-1.073 2.868-.027.022-.266.335-.533.695-.266.36-.599.747-.738.859-.143.113-.513.412-.827.665-.858.694-1.648 1.065-3.194 1.504-1.893.538-4.905-.036-6.55-1.247-1.134-.834-2.454-2.284-2.63-2.887a8.332 8.332 0 0 0-.314-.742c-.668-1.415-.56-2.164.313-2.164.438 0 .609.177.817.848.092.299.284.757.427 1.018s.261.504.261.54c0 .317 1.58 1.893 2.252 2.244 4.073 2.136 8.78.418 10.053-3.669.399-1.283.89-1.612 1.474-.991z"/>
        </symbol>
        <symbol id="Frame-4" viewBox="0 0 69 32">
            <path d="M12.288 13.987a.84.84 0 0 0-.81-.173l-7.67 2.42L14.767 5.751a.848.848 0 0 0 .026-1.197c-.016-.016-.031-.032-.049-.047L10.653.851a.846.846 0 0 0-1.291.199L.457 16.004a.653.653 0 0 0 .126.821l1.735 1.553c.213.19.509.259.784.183l6.213-1.732-7.152 11.238c-.345.543.371 1.131.835.686L14.945 17.3a.652.652 0 0 0 .017-.922l-.034-.033-2.642-2.356zM68.066 12.384l-1.187-1.058a.39.39 0 0 0-.627.156l-2.44 6.582c-1.169 3.153-2.554 4.233-3.423 4.233-.278 0-.673-.202-.673-.874 0-.229.04-.712.323-1.475l2.324-6.266c.17-.457.042-.972-.322-1.296l-1.187-1.059a.39.39 0 0 0-.627.156l-2.44 6.582c-1.168 3.153-2.554 4.233-3.422 4.233-.278 0-.673-.202-.673-.874 0-.229.041-.712.323-1.475l5.076-13.702c.17-.457.042-.971-.322-1.296l-1.187-1.058a.39.39 0 0 0-.626.156l-5.195 14.018c-.369.996-.542 2.008-.542 2.598 0 1.994 1.346 3.139 2.796 3.139 1.087 0 2.288-.695 3.375-2.127.372 1.358 1.471 2.127 2.649 2.127.657 0 1.356-.256 2.047-.771l-1.709 4.607a7.802 7.802 0 0 0-5.651-.402c-.228.07-.181.402.054.425 2.431.229 4.431 1.279 5.908 3.254a.797.797 0 0 0 1.385-.202l6.314-17.03a1.185 1.185 0 0 0-.321-1.299zM42.601 22.287c-.476 0-.831-.468-.831-1.165 0-.233.073-.788.358-1.566 1.632-4.256 3.851-6.566 4.847-6.566.658 0 .758.684.758 1.5 0 3.322-2.963 7.794-5.132 7.794v.002zm5.282-11.282c-1.174 0-2.266.675-3.243 1.704l2.492-6.78c.171-.466.042-.99-.325-1.321l-1.201-1.079a.392.392 0 0 0-.633.159l-5.246 14.284c-.373 1.015-.547 2.046-.547 2.647 0 1.934 1.354 3.198 3.196 3.198 4.344 0 8.264-5.151 8.264-9.305-.002-2.034-.982-3.507-2.758-3.507zM31.502 22.287c-.477 0-.832-.468-.832-1.165 0-.233.073-.788.358-1.566 1.634-4.256 3.856-6.566 4.853-6.566.659 0 .759.684.759 1.5-.001 3.322-2.965 7.794-5.139 7.794v.002zm2.042-9.578 2.495-6.78c.172-.466.043-.99-.325-1.321l-1.203-1.079a.393.393 0 0 0-.634.159l-5.253 14.284c-1.183 3.213-2.583 4.313-3.462 4.313-.281 0-.68-.205-.68-.891 0-.233.041-.725.327-1.503l2.348-6.385c.172-.465.043-.99-.325-1.321l-1.201-1.079a.394.394 0 0 0-.634.159l-2.467 6.707c-1.181 3.213-2.583 4.313-3.461 4.313-.281 0-.681-.205-.681-.891 0-.233.041-.725.326-1.503l2.348-6.385c.172-.465.042-.99-.326-1.321l-1.2-1.079a.394.394 0 0 0-.634.159l-2.466 6.707c-.373 1.015-.548 2.046-.548 2.647 0 2.032 1.36 3.198 2.827 3.198 1.099 0 2.313-.709 3.412-2.167.376 1.384 1.487 2.167 2.678 2.167 1.103 0 2.322-.713 3.421-2.18.394 1.342 1.552 2.18 3.044 2.18 4.351 0 8.278-5.151 8.278-9.305-.001-2.034-.982-3.507-2.759-3.507-1.176 0-2.27.675-3.247 1.704z"/>
        </symbol>
        <symbol id="Frame-3" viewBox="0 0 130 32">
            <path d="M119.081 21.963c-5.735 0-10.4-4.659-10.4-10.386V1.191h20.8v10.386c0 5.726-4.666 10.386-10.399 10.386zM110.572 3.08v8.497c0 4.685 3.817 8.497 8.51 8.497 4.691 0 8.509-3.812 8.509-8.497V3.08h-17.018z"/>
            <path d="M123.808 7.486h-9.454v1.888h1.292l-.654 5.232h1.906l.655-5.232h3.057l.655 5.232h1.905l-.654-5.232h1.292V7.486zM11.907 4.312c5.579 0 8.554 2.6 8.554 6.313 0 2.972-2.232 5.2-5.207 6.017v.074c4.649 1.151 6.322 3.862 6.322 6.722 0 4.085-2.976 6.871-8.554 6.871H.749v-.743c2.232 0 2.232 0 2.232-2.415V7.467c0-2.415 0-2.415-2.232-2.415v-.743l11.157.001zM9.676 16.568c3.348 0 4.648-2.228 4.648-5.757 0-3.157-1.302-5.757-3.533-5.757H8.932v11.514h.744zm-.744.743v12.257h2.603c2.975 0 3.905-2.971 3.905-6.314s-1.673-5.943-5.021-5.943l-1.487-.001zM23.062 21.211c0-6.314 5.207-9.842 9.855-9.842 4.277 0 8.145 1.857 7.029 8.171H28.938c0 5.014 2.863 6.871 5.653 6.871 3.347 0 4.835-1.857 5.579-3.157h.372c-.744 3.714-3.347 7.428-7.996 7.428-6.136.001-9.484-4.456-9.484-9.47zm5.876-2.415h5.467c.632-2.525 1.153-6.685-1.673-6.685-2.12 0-3.645 1.969-3.794 6.685zM55.787 16.568c0-1.671-1.116-2.228-2.231-2.228-1.153 0-2.417.557-3.719 1.671v11.142c0 2.415 0 2.415 2.231 2.415v.743H41.654v-.743c2.231 0 2.231 0 2.231-2.415V15.454c0-1.857 0-1.857-1.859-1.857v-.557l7.624-1.671h.297l-.112 3.899h.074c1.413-2.414 4.091-3.899 6.806-3.899 2.492 0 5.021 1.485 5.021 5.571v10.214c0 2.414 0 2.414 2.231 2.414v.743h-9.669v-.743c1.487 0 1.487 0 1.487-2.414V16.568zM76.24 26.41c3.347 0 4.835-1.857 5.579-3.157h.372c-.744 3.714-3.347 7.428-7.996 7.428-6.136 0-9.483-4.456-9.483-9.47 0-6.314 5.207-9.842 9.855-9.842s7.104 2.266 7.104 4.643c0 1.299-.595 2.6-2.826 2.6-1.859 0-2.269-1.151-2.232-1.931.187-2.712 0-4.569-2.231-4.569-2.603 0-3.794 3.454-3.794 7.762 0 4.866 2.863 6.537 5.652 6.537zM97.437 16.568c0-1.671-1.116-2.228-2.231-2.228-1.153 0-2.417.557-3.719 1.671v11.142c0 2.415 0 2.415 2.232 2.415v.743H83.305v-.743c2.232 0 2.232 0 2.232-2.415V5.798c0-1.857 0-1.857-1.859-1.857v-.557l7.512-1.671h.297v13.556h.074c1.413-2.414 4.09-3.899 6.806-3.899 2.492 0 5.02 1.485 5.02 5.571v10.214c0 2.415 0 2.415 2.233 2.415v.743h-9.671v-.743c1.487 0 1.487 0 1.487-2.415V16.569z"/>
        </symbol>
        <symbol id="Frame-2" viewBox="0 0 114 32">
            <path d="m27.992 8.33-.001-.003-.004-.006a2.023 2.023 0 0 0-.101-.153l-.029-.038a1.84 1.84 0 0 0-.089-.109l-.054-.059-.077-.077c-.024-.023-.05-.045-.075-.067a1.265 1.265 0 0 0-.071-.057c-.029-.023-.059-.044-.089-.066l-.069-.046a1.938 1.938 0 0 0-.098-.058l-.072-.039a1.647 1.647 0 0 0-.178-.08 2.274 2.274 0 0 0-.116-.041l-.067-.021a1.988 1.988 0 0 0-.138-.035l-.049-.01a2.004 2.004 0 0 0-.19-.028 2.078 2.078 0 0 0-1.231.256l-10.801 6.11-7.725-4.37 7.731-4.373 5.154 2.914c.98.553 2.232.225 2.798-.735s.23-2.188-.75-2.741L15.423.905a2.087 2.087 0 0 0-2.048 0L1.596 7.568a1.984 1.984 0 0 0-.052 3.501l11.825 6.689.005.002c.062.035.126.064.191.092.018.008.035.018.053.025.039.016.08.027.12.04.214.071.434.11.652.11h.004c.224 0 .448-.04.666-.114.035-.012.071-.021.105-.035.021-.008.04-.02.061-.029.063-.027.125-.055.184-.089l.005-.002 8.756-4.952v8.747l-9.777 5.53-9.776-5.53v-5.53c0-1.108-.917-2.006-2.048-2.006s-2.048.898-2.048 2.006v6.689c0 .717.39 1.379 1.024 1.737l11.825 6.689c.316.179.67.268 1.024.268s.707-.089 1.024-.268l11.825-6.689a1.997 1.997 0 0 0 1.024-1.737V9.335c0-.366-.101-.708-.276-1.003zM38.89 19.558c.683.443 1.377.771 2.082.986s1.399.321 2.082.321 1.235-.157 1.655-.471c.42-.314.63-.721.63-1.221 0-.414-.167-.739-.502-.975s-.755-.447-1.26-.632c-.505-.186-1.05-.375-1.634-.568s-1.128-.45-1.634-.771c-.505-.321-.926-.746-1.26-1.275s-.502-1.221-.502-2.079c0-.657.135-1.257.406-1.8s.648-1.011 1.132-1.404c.484-.393 1.064-.696 1.741-.911s1.42-.321 2.232-.321a10.856 10.856 0 0 1 4.079.793v3.129c-.641-.371-1.281-.646-1.922-.825s-1.274-.268-1.901-.268c-.655 0-1.185.143-1.591.429s-.609.664-.609 1.136c0 .4.167.714.502.943s.751.432 1.249.611c.498.178 1.043.364 1.634.557s1.135.454 1.634.782c.498.329.915.761 1.249 1.296s.502 1.239.502 2.111c0 .671-.139 1.289-.416 1.854s-.662 1.046-1.153 1.446c-.491.4-1.079.711-1.762.932s-1.431.332-2.242.332c-1.495 0-2.969-.321-4.421-.964V19.56zM49.923 8.029h3.481v5.443c.925-.671 1.901-1.007 2.926-1.007.555 0 1.068.096 1.538.289s.876.464 1.217.814c.342.35.609.768.801 1.254s.288 1.014.288 1.586v7.029h-3.481v-6.386c0-.443-.139-.807-.416-1.093s-.63-.429-1.057-.429c-.641 0-1.246.286-1.815.857v7.05h-3.481V8.029zm11.673 4.693h3.481v10.714h-3.481V12.722zm-.171-2.85c0-.571.178-1.032.534-1.382s.819-.525 1.388-.525c.541 0 .993.175 1.356.525s.545.811.545 1.382c0 .543-.182.993-.545 1.35s-.815.536-1.356.536c-.569 0-1.032-.179-1.388-.536s-.534-.807-.534-1.35zm12.443 8.207c0-.786-.196-1.418-.587-1.896s-.901-.718-1.527-.718-1.189.25-1.687.75v3.729c.498.5 1.061.75 1.687.75s1.135-.243 1.527-.729c.391-.486.587-1.114.587-1.886zm-7.283-5.357h3.481v.579c.812-.557 1.644-.836 2.499-.836.712 0 1.367.139 1.965.418s1.111.664 1.538 1.157c.427.493.758 1.082.993 1.768s.353 1.443.353 2.271-.117 1.586-.353 2.271c-.235.686-.566 1.275-.993 1.768a4.548 4.548 0 0 1-3.503 1.575c-.854 0-1.687-.279-2.499-.836v5.271h-3.481V12.721zm15.476 7.972h2.285c.541 0 .986-.161 1.335-.482s.524-.732.524-1.232-.175-.911-.524-1.232-.793-.482-1.335-.482h-2.285v3.429zm0-6.086h1.985c.498 0 .912-.15 1.239-.45s.491-.679.491-1.136c0-.471-.164-.854-.491-1.146s-.741-.439-1.239-.439h-1.985v3.171zm-3.397-5.915h6.044c.655 0 1.253.1 1.794.3s1.01.479 1.409.836.708.779.929 1.264.331 1.014.331 1.586c0 .729-.171 1.379-.513 1.95s-.811.993-1.409 1.264c.769.286 1.363.732 1.783 1.339s.63 1.304.63 2.089c0 .6-.114 1.154-.342 1.661s-.544.943-.951 1.307c-.406.364-.889.646-1.452.846s-1.178.3-1.848.3h-6.407V8.692zm11.418 9.386c0-.829.142-1.586.427-2.271s.683-1.275 1.196-1.768c.513-.493 1.121-.879 1.826-1.157s1.477-.418 2.317-.418c.84 0 1.613.139 2.318.418s1.309.664 1.815 1.157c.505.493.9 1.082 1.185 1.768s.427 1.443.427 2.271c0 .814-.143 1.568-.427 2.261s-.68 1.286-1.185 1.779c-.506.493-1.111.879-1.815 1.157s-1.477.418-2.318.418c-.84 0-1.612-.139-2.317-.418s-1.313-.664-1.826-1.157c-.513-.493-.912-1.086-1.196-1.779s-.427-1.446-.427-2.261zm3.566 0c0 .814.203 1.468.609 1.961s.936.739 1.591.739c.641 0 1.168-.246 1.581-.739s.619-1.146.619-1.961c0-.814-.207-1.468-.619-1.961s-.94-.739-1.581-.739c-.655 0-1.185.247-1.591.739s-.609 1.146-.609 1.961zm16.073 0c0-.786-.196-1.418-.587-1.896s-.9-.718-1.526-.718c-.627 0-1.189.25-1.687.75v3.729c.498.5 1.06.75 1.687.75s1.135-.243 1.526-.729c.392-.486.587-1.114.587-1.886zm-7.283-10.05h3.481V13.3c.811-.557 1.644-.836 2.498-.836.712 0 1.367.139 1.965.418s1.111.664 1.538 1.157c.427.493.758 1.082.993 1.768s.353 1.443.353 2.271-.117 1.586-.353 2.271c-.235.686-.566 1.275-.993 1.768a4.548 4.548 0 0 1-3.503 1.575c-.854 0-1.687-.279-2.498-.836v.579h-3.481V8.028z"/>
        </symbol>
        <symbol id="Frame-1" viewBox="0 0 145 32">
            <path d="m10.985 17.431 8.549 13.5a1.056 1.056 0 0 0 .932.48h3.167c.143.002.285-.025.417-.08s.253-.135.354-.236a1.088 1.088 0 0 0 .315-.776V1.73a1.1 1.1 0 0 0-.738-1.034 1.095 1.095 0 0 0-1.214.354L10.984 16.12a1.195 1.195 0 0 0 0 1.312zM1.375 31.406h5.64c.143.002.285-.025.417-.08s.253-.135.354-.236a1.088 1.088 0 0 0 .315-.776v-7.25a1.112 1.112 0 0 0-.741-1.03 1.092 1.092 0 0 0-1.213.352l-5.64 7.25a1.118 1.118 0 0 0-.102 1.152 1.109 1.109 0 0 0 .97.618zM102.106 15.105a1.924 1.924 0 0 0-.211-.222l-.117-.1-.06-.053a5.117 5.117 0 0 0-.871-.595 5.71 5.71 0 0 0-1.061-.5 7.083 7.083 0 0 0-1.164-.31 6.782 6.782 0 0 0-3.07.158c-.597.17-1.17.414-1.706.727a7.184 7.184 0 0 0-1.446 1.125 8.17 8.17 0 0 0-1.133 1.452 6.589 6.589 0 0 0-.744 1.705 6.987 6.987 0 0 0 0 3.805c.17.599.42 1.172.744 1.702a8.134 8.134 0 0 0 1.133 1.452c.435.436.922.815 1.451 1.128a8.347 8.347 0 0 0 1.699.725 6.571 6.571 0 0 0 3.155.157c.403-.067.798-.18 1.175-.337a7.793 7.793 0 0 0 1.049-.527c.334-.201.656-.422.962-.663a2.66 2.66 0 0 0 .248-.25l.04-.045a.876.876 0 0 0 .163-.3l.015-.09a.756.756 0 0 0-.097-.413l-.035-.055a.855.855 0 0 0-.092-.125l-.092-.125c-.184-.25-.357-.5-.543-.73a.789.789 0 0 0-.288-.21.521.521 0 0 0-.34 0 1.44 1.44 0 0 0-.424.292l-.163.14c-.162.135-.248.223-.474.383a3.556 3.556 0 0 1-.655.398c-.25.128-.516.223-.791.28a4.295 4.295 0 0 1-2.693-.285 4.882 4.882 0 0 1-2.47-2.532 4.492 4.492 0 0 1 0-3.648 5.066 5.066 0 0 1 1.012-1.53 5.334 5.334 0 0 1 1.461-1.045 3.94 3.94 0 0 1 2.52-.3c.285.066.563.154.833.265.258.11.507.241.744.39.496.295 1.056 1.14 1.6.47l.786-1.065a.468.468 0 0 0 .082-.357.716.716 0 0 0-.134-.343zM53.745 26.438 45.144 6.711a.794.794 0 0 0-.724-.5h-1.379a.782.782 0 0 0-.721.483l-8.618 19.722a.77.77 0 0 0 .05.765.78.78 0 0 0 .668.37h1.272a.77.77 0 0 0 .725-.483l2.068-4.867h10.454l2.056 4.867a.789.789 0 0 0 .727.5h1.24a.765.765 0 0 0 .669-.313.813.813 0 0 0 .117-.818zm-14.162-6.75.035-.078 4.144-9.722 4.157 9.8h-8.336zM132.495 18.193a7.401 7.401 0 0 0-.992-2.143 7.145 7.145 0 0 0-1.121-1.197 5.016 5.016 0 0 0-1.332-.86 7.241 7.241 0 0 0-1.488-.555 6.726 6.726 0 0 0-3.492.068 6.593 6.593 0 0 0-1.662.725 7.786 7.786 0 0 0-1.411 1.135 6.346 6.346 0 0 0-1.052 1.455 7.31 7.31 0 0 0-.677 1.722 6.805 6.805 0 0 0-.154 2.94c.043.383.116.761.218 1.133.214.765.549 1.49.992 2.147.327.441.703.841 1.121 1.195a5.09 5.09 0 0 0 1.334.862c.474.239.974.424 1.488.552a6.784 6.784 0 0 0 5.151-.793 7.81 7.81 0 0 0 1.412-1.132 5.864 5.864 0 0 0 1.014-1.405l.022-.05a.458.458 0 0 0 .039-.477.377.377 0 0 0-.315-.195h-2.055a.561.561 0 0 0-.454.213 4.286 4.286 0 0 1-.897.825 4.522 4.522 0 0 1-3.943.447 5.051 5.051 0 0 1-1.329-.73 3.77 3.77 0 0 1-.96-1.148 6.223 6.223 0 0 1-.444-1.5l-.012-.065h.069l10.565-.023c.433 0 .679-.27.679-.75a7.282 7.282 0 0 0-.315-2.397zm-2.249.943-8.55.04.022-.073c.143-.487.356-.949.633-1.372a4.777 4.777 0 0 1 1.265-1.278 4.374 4.374 0 0 1 1.173-.532 4.515 4.515 0 0 1 2.78.08 5.02 5.02 0 0 1 1.329.73c.395.316.722.709.962 1.155.209.368.359.767.444 1.182l.015.068h-.074zM68.923 25.435a7.977 7.977 0 0 0 1.114-1.452 7.534 7.534 0 0 0 .722-1.72 7.015 7.015 0 0 0 0-3.802 7.509 7.509 0 0 0-.722-1.72 7.25 7.25 0 0 0-2.564-2.585 7.566 7.566 0 0 0-1.684-.727 6.763 6.763 0 0 0-4.591.29 7.35 7.35 0 0 0-1.694 1.078l-.092.077v-.77a.634.634 0 0 0-.182-.524.64.64 0 0 0-.52-.182h-1.081a.65.65 0 0 0-.722.706v16.595a.686.686 0 0 0 .414.653.69.69 0 0 0 .265.054h1.104a.742.742 0 0 0 .526-.197.685.685 0 0 0 .196-.5v-4.85l.092.078c.506.43 1.07.785 1.674 1.057 1.45.63 3.072.733 4.588.29a7.403 7.403 0 0 0 1.706-.727 7.065 7.065 0 0 0 1.451-1.12zm-3.282-.695a4.123 4.123 0 0 1-3.506 0 4.469 4.469 0 0 1-1.456-1.06 5.06 5.06 0 0 1-.992-1.527 4.717 4.717 0 0 1 0-3.618 5.062 5.062 0 0 1 .992-1.5 4.82 4.82 0 0 1 1.456-1.04 4.132 4.132 0 0 1 3.504 0 4.888 4.888 0 0 1 1.436 1.038c.41.438.739.946.972 1.5a4.692 4.692 0 0 1 0 3.615 5.496 5.496 0 0 1-.975 1.535c-.404.443-.89.802-1.431 1.057zM75.736 13.418h-1.081a.65.65 0 0 0-.722.717v16.572a.694.694 0 0 0 .196.5.675.675 0 0 0 .484.198h1.101a.739.739 0 0 0 .526-.198.674.674 0 0 0 .196-.5v-4.85l.092.077c.507.43 1.071.786 1.677 1.057a6.754 6.754 0 0 0 4.588.29 7.446 7.446 0 0 0 1.706-.727 7.322 7.322 0 0 0 1.451-1.132 7.89 7.89 0 0 0 1.111-1.453 7.534 7.534 0 0 0 .722-1.72 6.976 6.976 0 0 0 0-3.802 7.22 7.22 0 0 0-3.284-4.305 7.717 7.717 0 0 0-1.686-.727 6.769 6.769 0 0 0-4.591.29 7.38 7.38 0 0 0-1.694 1.077l-.099.103v-.75a.65.65 0 0 0-.174-.528.637.637 0 0 0-.519-.19zm.977 5.135c.24-.555.576-1.063.992-1.5s.907-.794 1.451-1.05a4.136 4.136 0 0 1 3.505 0 4.912 4.912 0 0 1 1.455 1.04c.41.438.739.946.972 1.5a4.67 4.67 0 0 1 0 3.615 5.34 5.34 0 0 1-.975 1.537 4.61 4.61 0 0 1-1.431 1.057 4.144 4.144 0 0 1-3.509 0 4.486 4.486 0 0 1-1.453-1.06 5.01 5.01 0 0 1-.992-1.527 4.718 4.718 0 0 1-.015-3.613zM116.357 13.931a.652.652 0 0 0-.191-.529.642.642 0 0 0-.531-.176h-1.088a.624.624 0 0 0-.521.182.65.65 0 0 0-.181.524v7.955c.009.466-.092.928-.293 1.347a2.899 2.899 0 0 1-.743 1c-.31.257-.659.461-1.035.602a3.27 3.27 0 0 1-2.609-.135 2.786 2.786 0 0 1-.967-.835 2.97 2.97 0 0 1-.528-1.125 5.5 5.5 0 0 1-.164-1.27v-7.335a1.281 1.281 0 0 0-.161-.688c-.088-.091-.196-.161-.315-.205s-.246-.059-.372-.045h-.784a.848.848 0 0 0-.633.25.98.98 0 0 0-.248.722v7.322c-.009.8.11 1.596.353 2.357a5.83 5.83 0 0 0 1.064 1.94 4.847 4.847 0 0 0 1.736 1.3 6.36 6.36 0 0 0 3.671.353c.332-.081.657-.192.969-.333.291-.136.562-.315.801-.53l.171-.16.095-.093v.558a.613.613 0 0 0 .173.445c.066.082.15.147.245.191s.199.064.303.059h1.101a.67.67 0 0 0 .484-.195.597.597 0 0 0 .198-.5V13.929zM144.042 21.716a3.642 3.642 0 0 0-.972-1.25 5.87 5.87 0 0 0-1.488-.892 10.407 10.407 0 0 0-1.879-.585 6.547 6.547 0 0 1-.922-.283c-.272-.1-.53-.232-.769-.395a1.74 1.74 0 0 1-.715-.848 1.337 1.337 0 0 1 0-.797c.087-.293.454-1.097 1.873-1.187 1.356-.085 2.038.632 2.273.952.036.045.368.478.606.75a.7.7 0 0 0 .142.1.615.615 0 0 0 .593-.078l.828-.62a.598.598 0 0 0 .215-.223.593.593 0 0 0 .079-.302v-.025a1.43 1.43 0 0 0-.188-.453c-.244-.353-.51-.692-.794-1.015a3.872 3.872 0 0 0-.878-.772 4.075 4.075 0 0 0-1.1-.478 5.896 5.896 0 0 0-3.354.13 4.145 4.145 0 0 0-1.488.812 3.65 3.65 0 0 0-.975 1.28 3.957 3.957 0 0 0-.044 3.162 3.4 3.4 0 0 0 .88 1.185c.405.35.852.65 1.327.892.559.264 1.14.477 1.737.635.176.04.352.087.535.138s.362.097.543.14c.321.078.633.194.926.345.247.119.466.289.642.5a1.345 1.345 0 0 1-.027 1.547c-.181.233-.402.43-.655.58a3.22 3.22 0 0 1-.826.34c-.49.111-.998.111-1.488 0a3.759 3.759 0 0 1-.743-.28 3.17 3.17 0 0 1-.668-.45 3.672 3.672 0 0 1-.479-.68 1.07 1.07 0 0 0-.276-.38.626.626 0 0 0-.687-.078l-.992.473a.651.651 0 0 0-.354.337.557.557 0 0 0-.025.313c.01.105.036.208.078.305.171.453.415.876.721 1.25.34.408.754.748 1.22 1 .436.262.91.452 1.404.563a6.55 6.55 0 0 0 3.442-.11 4.624 4.624 0 0 0 1.623-.83 3.645 3.645 0 0 0 1.089-1.345 4.007 4.007 0 0 0 .375-1.686 4.003 4.003 0 0 0-.366-1.689z"/>
        </symbol>
        <symbol id="Frame" viewBox="0 0 145 32">
            <path d="M20.17 17.773c-.049.058-.096.119-.148.174l-.001.011-4.901 5.483-.008-.002c-.325.366-.712.657-1.138.855s-.883.3-1.345.299H7.804c-.096 0-.19.021-.279.062s-.169.101-.236.177c-.068.075-.121.165-.158.264s-.055.205-.055.312v4.819l-.015.001c-.026.177-.095.343-.2.48s-.241.237-.394.293-.317.062-.473.02a.855.855 0 0 1-.413-.258l-.003.002-4.446-4.969.004-.008c-.34-.365-.611-.803-.796-1.288s-.28-1.007-.28-1.535V10.531c0-1.054.373-2.008.978-2.713l-.002-.007 5.042-5.636c.654-.718 1.534-1.12 2.451-1.119h4.101c.523 0 1.018.131 1.463.361v-.009c.38.198.726.464 1.016.791l.006-.003 5.983 6.691.001 7.848h7V28.93a.086.086 0 0 1 .002.023v.275c-.031.495-.228.958-.553 1.297s-.751.527-1.195.527h-3.508c-.242 0-.482-.056-.704-.166s-.421-.268-.585-.468c-.164-.2-.289-.435-.368-.691s-.109-.528-.089-.798V16.734l-.926 1.041zm-6.809-1.032c.096 0 .19-.021.279-.062s.169-.101.236-.176c.068-.075.121-.165.158-.264s.056-.205.056-.312V9.716c0-.107-.019-.213-.056-.312s-.09-.189-.158-.264c-.068-.076-.148-.136-.236-.176s-.183-.062-.279-.062v-.001H7.802c-.193 0-.378.086-.515.238s-.213.36-.214.575v6.21c0 .45.326.814.729.814l5.559.002z"/>
            <path d="M21.1 16.74h7l-7-7.846v7.846zM38.023 7.59h6.478c2.647 0 4.995 0 6.41 2.271.616 1.021.913 2.474.913 3.699 0 .994-.183 1.965-.548 2.806-1.391 3.215-4.357 3.292-6.547 3.342h-2.668v5.893h-4.038V7.591zm4.04 3.317v5.459h2.42c1.507 0 3.334-.05 3.334-2.831 0-2.629-2.033-2.629-3.197-2.629l-2.557.001zm14.599 2.752c.776-.741 1.62-1.327 3.444-1.532v3.47l-1.163.203c-1.687.331-2.19.613-2.19 2.296v7.5h-3.512V12.254h3.421v1.404zm17.152 5.252c0 3.368-1.733 7.067-6.387 7.067-3.353 0-6.41-2.143-6.41-7.067 0-4.081 2.303-7.322 6.867-7.041 4.858.306 5.93 4.618 5.93 7.041zm-8.668-2.625c-.433.766-.593 1.686-.593 2.606 0 2.12.912 3.985 2.874 3.985 1.894 0 2.829-1.712 2.829-3.806 0-1.482-.32-2.632-.981-3.348-.73-.766-1.551-.792-2.053-.741-1.004.076-1.596.459-2.075 1.303h-.001zm11.521-5.336c0-.663.045-1.557.501-2.271.434-.663 1.414-1.352 3.058-1.352.707 0 1.415.128 2.098.229v2.935h-.844c-1.322 0-1.391.306-1.368 2.092h2.349v2.398h-2.327v10.613h-3.49V14.981h-1.87v-2.398h1.894v-1.632zM84.216 10.603h3.466V7.567h-3.466v3.036zm0 15.001h3.466V12.261h-3.466v13.343zM91.263 8.424h3.49v4.158h2.304v2.398H94.73v5.996c-.023.816-.023 1.505.913 1.505l1.254-.051v3.061c-.752.128-1.209.205-1.847.205-1.211 0-2.533-.077-3.286-1.302-.479-.79-.501-1.734-.501-3.009v-6.429h-1.734v-2.398h1.733V8.425zM110.236 7.59c.48 1.938.958 3.878 1.481 5.818.891 3.469 1.05 4.03 1.552 7.525.479-3.572.593-4.183 1.322-7.858.343-1.837.707-3.673 1.05-5.485h3.992L115.55 25.6h-4.152c-.501-1.989-.981-3.98-1.506-5.943-.867-3.317-.913-3.445-1.392-5.97-.409 2.22-.455 2.398-1.368 5.842L105.58 25.6h-4.151L97.346 7.59h4.015c1.733 8.546 1.917 9.49 2.394 13.393.593-3.571.754-4.26 1.597-7.832l1.322-5.561h3.559zM131.426 22.211c-.411.689-.822 1.352-1.438 1.99-1.028 1.072-2.578 1.888-4.494 1.888-3.536 0-6.022-2.526-6.022-6.889 0-3.214 1.414-7.347 6.113-7.347.708 0 2.759.077 4.288 1.913 1.552 1.863 1.642 4.464 1.689 5.97h-8.508c-.023 1.657.821 3.317 2.715 3.317 1.915 0 2.576-1.404 3.01-2.348l2.646 1.505zm-3.491-4.935c-.068-.559-.159-1.295-.661-1.879-.434-.483-1.093-.737-1.711-.737-.843 0-1.436.457-1.778.864-.48.584-.593 1.193-.708 1.752h4.858zM133.596 25.601h3.513V7.591h-3.513v18.01zM140.249 25.601h3.513V7.591h-3.513v18.01z"/>
        </symbol>
        <symbol id="Logo" viewBox="0 0 32 32">
            <path fill="#f2994a" style="fill:var(--color3, #f2994a)" d="M16 32c8.837 0 16-7.163 16-16S24.837 0 16 0 0 7.163 0 16s7.163 16 16 16z"/>
            <path fill="#fff" style="fill:var(--color1, #fff)" d="M11.556 9.778h8.889c.982 0 1.778.796 1.778 1.778v1.778c0 .982-.796 1.778-1.778 1.778h-8.889a1.778 1.778 0 0 1-1.778-1.778v-1.778c0-.982.796-1.778 1.778-1.778zM11.556 16.889h8.889c.982 0 1.778.796 1.778 1.778v1.778c0 .982-.796 1.778-1.778 1.778h-8.889a1.778 1.778 0 0 1-1.778-1.778v-1.778c0-.982.796-1.778 1.778-1.778z"/>
        </symbol>
    </defs>
</svg>